<mxfile host="www.draw.io" modified="2024-02-06T16:08:10.643Z" agent="Mozilla/5.0 (Windows NT 10.0; Win64; x64) AppleWebKit/537.36 (KHTML, like Gecko) Chrome/121.0.0.0 Safari/537.36 Edg/121.0.0.0" etag="Pz7WlF2yCQvsDBukPO6W" version="23.1.1" type="device">
  <diagram name="Pagina-1" id="w9YE637o8_gkn6TszZzu">
    <mxGraphModel dx="956" dy="1624" grid="1" gridSize="10" guides="1" tooltips="1" connect="1" arrows="1" fold="1" page="1" pageScale="1" pageWidth="850" pageHeight="1100" math="0" shadow="0">
      <root>
        <mxCell id="0" />
        <mxCell id="1" parent="0" />
        <mxCell id="-m9kF-2rj94RuoO7QnJ5-7" value="" style="edgeStyle=orthogonalEdgeStyle;rounded=0;orthogonalLoop=1;jettySize=auto;html=1;" edge="1" parent="1" source="-m9kF-2rj94RuoO7QnJ5-1" target="-m9kF-2rj94RuoO7QnJ5-3">
          <mxGeometry relative="1" as="geometry" />
        </mxCell>
        <mxCell id="-m9kF-2rj94RuoO7QnJ5-9" style="edgeStyle=orthogonalEdgeStyle;rounded=0;orthogonalLoop=1;jettySize=auto;html=1;" edge="1" parent="1" target="-m9kF-2rj94RuoO7QnJ5-2">
          <mxGeometry relative="1" as="geometry">
            <mxPoint x="430" y="120" as="sourcePoint" />
            <Array as="points">
              <mxPoint x="430" y="100" />
              <mxPoint x="180" y="100" />
            </Array>
          </mxGeometry>
        </mxCell>
        <mxCell id="-m9kF-2rj94RuoO7QnJ5-10" style="edgeStyle=orthogonalEdgeStyle;rounded=0;orthogonalLoop=1;jettySize=auto;html=1;entryX=0.5;entryY=0;entryDx=0;entryDy=0;" edge="1" parent="1" target="-m9kF-2rj94RuoO7QnJ5-5">
          <mxGeometry relative="1" as="geometry">
            <mxPoint x="430" y="100" as="sourcePoint" />
          </mxGeometry>
        </mxCell>
        <mxCell id="-m9kF-2rj94RuoO7QnJ5-1" value="Homepage" style="rounded=1;whiteSpace=wrap;html=1;" vertex="1" parent="1">
          <mxGeometry x="370" y="-30" width="120" height="60" as="geometry" />
        </mxCell>
        <mxCell id="-m9kF-2rj94RuoO7QnJ5-11" style="edgeStyle=orthogonalEdgeStyle;rounded=0;orthogonalLoop=1;jettySize=auto;html=1;exitX=0.5;exitY=1;exitDx=0;exitDy=0;" edge="1" parent="1" source="-m9kF-2rj94RuoO7QnJ5-2" target="-m9kF-2rj94RuoO7QnJ5-6">
          <mxGeometry relative="1" as="geometry" />
        </mxCell>
        <mxCell id="-m9kF-2rj94RuoO7QnJ5-2" value="Ricerca disponibilitÃ " style="rounded=1;whiteSpace=wrap;html=1;" vertex="1" parent="1">
          <mxGeometry x="120" y="140" width="120" height="60" as="geometry" />
        </mxCell>
        <mxCell id="-m9kF-2rj94RuoO7QnJ5-13" style="edgeStyle=orthogonalEdgeStyle;rounded=0;orthogonalLoop=1;jettySize=auto;html=1;exitX=0.5;exitY=1;exitDx=0;exitDy=0;" edge="1" parent="1" source="-m9kF-2rj94RuoO7QnJ5-3" target="-m9kF-2rj94RuoO7QnJ5-12">
          <mxGeometry relative="1" as="geometry" />
        </mxCell>
        <mxCell id="-m9kF-2rj94RuoO7QnJ5-14" style="edgeStyle=orthogonalEdgeStyle;rounded=0;orthogonalLoop=1;jettySize=auto;html=1;exitX=1;exitY=0.5;exitDx=0;exitDy=0;entryX=0;entryY=0.5;entryDx=0;entryDy=0;" edge="1" parent="1" source="-m9kF-2rj94RuoO7QnJ5-3" target="-m9kF-2rj94RuoO7QnJ5-5">
          <mxGeometry relative="1" as="geometry" />
        </mxCell>
        <mxCell id="-m9kF-2rj94RuoO7QnJ5-3" value="Login" style="rounded=1;whiteSpace=wrap;html=1;" vertex="1" parent="1">
          <mxGeometry x="370" y="140" width="120" height="60" as="geometry" />
        </mxCell>
        <mxCell id="-m9kF-2rj94RuoO7QnJ5-5" value="Registrazione" style="rounded=1;whiteSpace=wrap;html=1;" vertex="1" parent="1">
          <mxGeometry x="620" y="140" width="120" height="60" as="geometry" />
        </mxCell>
        <mxCell id="-m9kF-2rj94RuoO7QnJ5-6" value="Capsule disponibili" style="rounded=1;whiteSpace=wrap;html=1;" vertex="1" parent="1">
          <mxGeometry x="120" y="240" width="120" height="60" as="geometry" />
        </mxCell>
        <mxCell id="-m9kF-2rj94RuoO7QnJ5-12" value="Password dimenticata" style="rounded=1;whiteSpace=wrap;html=1;" vertex="1" parent="1">
          <mxGeometry x="370" y="240" width="120" height="60" as="geometry" />
        </mxCell>
      </root>
    </mxGraphModel>
  </diagram>
</mxfile>
